<svg width="60" height="60" viewBox="0 0 60 60" fill="none" xmlns="http://www.w3.org/2000/svg">
<path fill-rule="evenodd" clip-rule="evenodd" d="M13.8042 31.8489C13.8042 23.0961 20.8257 16 29.4865 16C38.1473 16 45.1688 23.0961 45.1688 31.8489C45.1688 40.6017 38.1473 47.6977 29.4865 47.6977" fill="white"/>
<path fill-rule="evenodd" clip-rule="evenodd" d="M13.8042 31.8489C13.8042 23.0961 20.8257 16 29.4865 16C38.1473 16 45.1688 23.0961 45.1688 31.8489C45.1688 40.6017 38.1473 47.6977 29.4865 47.6977" fill="white"/>
<path d="M13.8042 31.8489C13.8042 23.0961 20.8257 16 29.4865 16C38.1473 16 45.1688 23.0961 45.1688 31.8489C45.1688 40.6017 38.1473 47.6977 29.4865 47.6977" stroke="#565656" stroke-width="1.625" stroke-linecap="round"/>
<path fill-rule="evenodd" clip-rule="evenodd" d="M26.2192 47.6976C26.2192 45.8743 27.6812 44.3953 29.4868 44.3953C31.2909 44.3953 32.7529 45.8743 32.7529 47.6976C32.7529 49.5208 31.2909 50.9999 29.4868 50.9999C27.6812 50.9999 26.2192 49.5208 26.2192 47.6976Z" fill="#FEFEFE"/>
<path fill-rule="evenodd" clip-rule="evenodd" d="M26.2192 47.6976C26.2192 45.8743 27.6812 44.3953 29.4868 44.3953C31.2909 44.3953 32.7529 45.8743 32.7529 47.6976C32.7529 49.5208 31.2909 50.9999 29.4868 50.9999C27.6812 50.9999 26.2192 49.5208 26.2192 47.6976Z" stroke="#565656" stroke-width="1.625" stroke-linecap="round"/>
<path fill-rule="evenodd" clip-rule="evenodd" d="M17.9592 38.7074H15.6942C14.2069 38.7074 13 37.4877 13 35.9846V27.7792C13 26.2746 14.2069 25.0564 15.6942 25.0564H17.9592V38.7074Z" fill="#FEFEFE"/>
<path fill-rule="evenodd" clip-rule="evenodd" d="M17.9592 38.7074H15.6942C14.2069 38.7074 13 37.4877 13 35.9846V27.7792C13 26.2746 14.2069 25.0564 15.6942 25.0564H17.9592V38.7074Z" stroke="#565656" stroke-width="1.625" stroke-linecap="round"/>
<path fill-rule="evenodd" clip-rule="evenodd" d="M41.0408 25.0559H43.3058C44.7931 25.0559 46 26.2757 46 27.7788V35.9841C46 37.4888 44.7931 38.707 43.3058 38.707H41.0408V25.0559Z" fill="#FEFEFE"/>
<path fill-rule="evenodd" clip-rule="evenodd" d="M41.0408 25.0559H43.3058C44.7931 25.0559 46 26.2757 46 27.7788V35.9841C46 37.4888 44.7931 38.707 43.3058 38.707H41.0408V25.0559Z" stroke="#565656" stroke-width="1.625" stroke-linecap="round"/>
</svg>
