<svg width="60" height="60" viewBox="0 0 60 60" fill="none" xmlns="http://www.w3.org/2000/svg">
<path fill-rule="evenodd" clip-rule="evenodd" d="M48.7838 23.3671C46.4892 25.6974 28.2768 44.1928 28.2768 44.1928C28.2768 44.1928 26.5924 39.5322 21.3421 34.2019C16.853 29.643 11.4231 27.0755 11.4231 27.0755C11.4231 27.0755 29.448 8.77054 31.9285 6.24983C34.4106 3.73074 51.0785 21.0368 48.7838 23.3671Z" fill="#FEFEFE"/>
<path fill-rule="evenodd" clip-rule="evenodd" d="M48.7838 23.3671C46.4892 25.6974 28.2768 44.1928 28.2768 44.1928C28.2768 44.1928 26.5924 39.5322 21.3421 34.2019C16.853 29.643 11.4231 27.0755 11.4231 27.0755C11.4231 27.0755 29.448 8.77054 31.9285 6.24983C34.4106 3.73074 51.0785 21.0368 48.7838 23.3671Z" stroke="#565656" stroke-width="1.625" stroke-linecap="round"/>
<path d="M10.0867 29.8372C10.1197 29.2859 9.69945 28.8123 9.14814 28.7793C8.59684 28.7464 8.12323 29.1666 8.0903 29.7179L10.0867 29.8372ZM8 48.0002L7.00178 47.9406L6.93581 49.0451L8.0413 48.9994L8 48.0002ZM25.6117 48.2732C26.1635 48.2504 26.5924 47.7846 26.5695 47.2327C26.5467 46.6809 26.0809 46.2521 25.5291 46.2749L25.6117 48.2732ZM11.0245 39.9814C10.637 39.5879 10.0039 39.583 9.61038 39.9705C9.21685 40.358 9.21197 40.9912 9.59947 41.3847L11.0245 39.9814ZM14.5749 46.4374C14.9624 46.8309 15.5955 46.8358 15.989 46.4483C16.3826 46.0608 16.3874 45.4277 15.9999 45.0341L14.5749 46.4374ZM17.8547 29.7585C17.4672 30.152 17.4721 30.7851 17.8656 31.1726C18.2591 31.5602 18.8923 31.5553 19.2798 31.1617L17.8547 29.7585ZM36.9487 13.2182C37.3362 12.8247 37.3313 12.1916 36.9378 11.8041C36.5443 11.4166 35.9111 11.4214 35.5236 11.815L36.9487 13.2182ZM24.5306 36.538C24.1431 36.9315 24.148 37.5646 24.5415 37.9521C24.9351 38.3396 25.5682 38.3348 25.9557 37.9412L24.5306 36.538ZM43.6246 19.9977C44.0121 19.6042 44.0072 18.9711 43.6137 18.5835C43.2202 18.196 42.587 18.2009 42.1995 18.5945L43.6246 19.9977ZM8.0903 29.7179L7.00178 47.9406L8.99822 48.0599L10.0867 29.8372L8.0903 29.7179ZM8.0413 48.9994L25.6117 48.2732L25.5291 46.2749L7.9587 47.0011L8.0413 48.9994ZM9.59947 41.3847L14.5749 46.4374L15.9999 45.0341L11.0245 39.9814L9.59947 41.3847ZM19.2798 31.1617L36.9487 13.2182L35.5236 11.815L17.8547 29.7585L19.2798 31.1617ZM25.9557 37.9412L43.6246 19.9977L42.1995 18.5945L24.5306 36.538L25.9557 37.9412Z" fill="#565656"/>
</svg>
