<svg width="51" height="49" viewBox="0 0 51 49" fill="none" xmlns="http://www.w3.org/2000/svg">
<path fill-rule="evenodd" clip-rule="evenodd" d="M50.035 23.9217L47.4362 28.487L44.8391 23.9217H46.5766C46.2751 11.6152 36.3347 1.69018 24.1337 1.69018C11.7462 1.69018 1.66589 11.916 1.66589 24.488C1.66589 37.0582 11.7462 47.2857 24.1337 47.2857C30.2842 47.2857 36.0232 44.8129 40.2962 40.3254L41.494 41.5001C36.9045 46.3206 30.739 48.976 24.1337 48.976C10.8266 48.976 0 37.9912 0 24.488C0 10.9847 10.8266 -4.95911e-05 24.1337 -4.95911e-05C37.2543 -4.95911e-05 47.941 10.6805 48.2425 23.9217H50.035Z" fill="#4B5661"/>
</svg>
