<svg width="60" height="60" viewBox="0 0 60 60" fill="none" xmlns="http://www.w3.org/2000/svg">
<path fill-rule="evenodd" clip-rule="evenodd" d="M12.7064 45.4167H46.2083C48.8076 45.4167 50.9147 43.3071 50.9147 40.7047V19.8482C50.9147 17.2459 48.8076 15.1362 46.2083 15.1362H12.7064C10.1071 15.1362 8 17.2459 8 19.8482V40.7047C8 43.3071 10.1071 45.4167 12.7064 45.4167Z" fill="#FEFEFE"/>
<path fill-rule="evenodd" clip-rule="evenodd" d="M12.7064 45.4167H46.2083C48.8076 45.4167 50.9147 43.3071 50.9147 40.7047V19.8482C50.9147 17.2459 48.8076 15.1362 46.2083 15.1362H12.7064C10.1071 15.1362 8 17.2459 8 19.8482V40.7047C8 43.3071 10.1071 45.4167 12.7064 45.4167Z" stroke="#565656" stroke-width="1.625" stroke-linecap="round"/>
<path d="M35.207 21.5261L25.1115 38.6185" stroke="#565656" stroke-width="1.625" stroke-linecap="round"/>
<path fill-rule="evenodd" clip-rule="evenodd" d="M37.6819 38.7302L46.0468 29.9572L37.6819 21.1826" fill="#FEFEFE"/>
<path d="M37.6819 38.7302L46.0468 29.9572L37.6819 21.1826" stroke="#565656" stroke-width="1.625" stroke-linecap="round"/>
<path fill-rule="evenodd" clip-rule="evenodd" d="M21.3113 38.7302L12.9464 29.9572L21.3113 21.1826" fill="#FEFEFE"/>
<path d="M21.3113 38.7302L12.9464 29.9572L21.3113 21.1826" stroke="#565656" stroke-width="1.625" stroke-linecap="round"/>
</svg>
