<svg width="60" height="60" viewBox="0 0 60 60" fill="none" xmlns="http://www.w3.org/2000/svg">
<path fill-rule="evenodd" clip-rule="evenodd" d="M30.5 34.1931C39.0603 34.1931 46 27.4343 46 19.0973C46 10.7587 39.0603 4 30.5 4C21.9397 4 15 10.7587 15 19.0973C15 27.4343 21.9397 34.1931 30.5 34.1931Z" fill="#FEFEFE"/>
<path fill-rule="evenodd" clip-rule="evenodd" d="M30.5 34.1931C39.0603 34.1931 46 27.4343 46 19.0973C46 10.7587 39.0603 4 30.5 4C21.9397 4 15 10.7587 15 19.0973C15 27.4343 21.9397 34.1931 30.5 34.1931Z" stroke="#565656" stroke-width="1.625"/>
<path d="M37.5817 38.1332C38.1178 38.0003 38.4446 37.458 38.3117 36.9219C38.1788 36.3859 37.6365 36.0591 37.1004 36.192L37.5817 38.1332ZM24.2921 39.3678C23.756 39.5008 23.4292 40.0431 23.5621 40.5791C23.695 41.1152 24.2373 41.442 24.7734 41.3091L24.2921 39.3678ZM37.5817 41.6022C38.1178 41.4693 38.4446 40.927 38.3117 40.3909C38.1788 39.8549 37.6365 39.528 37.1004 39.661L37.5817 41.6022ZM24.2921 42.8368C23.756 42.9697 23.4292 43.512 23.5621 44.0481C23.695 44.5841 24.2373 44.911 24.7734 44.778L24.2921 42.8368ZM37.5817 44.8902C38.1178 44.7573 38.4446 44.215 38.3117 43.6789C38.1788 43.1428 37.6365 42.816 37.1004 42.949L37.5817 44.8902ZM24.2921 46.1248C23.756 46.2577 23.4292 46.8 23.5621 47.3361C23.695 47.8721 24.2373 48.1989 24.7734 48.066L24.2921 46.1248ZM37.5817 48.1781C38.1177 48.0452 38.4445 47.5029 38.3116 46.9669C38.1787 46.4308 37.6364 46.104 37.1004 46.2369L37.5817 48.1781ZM30.6954 47.8248C30.1593 47.9577 29.8325 48.5 29.9654 49.0361C30.0983 49.5721 30.6406 49.899 31.1767 49.7661L30.6954 47.8248ZM35.6182 51.7938C35.7616 51.2605 35.4455 50.7119 34.9122 50.5685C34.3788 50.4251 33.8302 50.7412 33.6868 51.2745L35.6182 51.7938ZM33.9895 54.0002V55.0002H34.7561L34.9552 54.2598L33.9895 54.0002ZM27.9317 54.0002L26.966 54.2598L27.165 55.0002H27.9317V54.0002ZM28.2343 51.2745C28.0909 50.7412 27.5423 50.4251 27.009 50.5685C26.4756 50.7119 26.1595 51.2605 26.3029 51.7938L28.2343 51.2745ZM37.1004 36.192L24.2921 39.3678L24.7734 41.3091L37.5817 38.1332L37.1004 36.192ZM37.1004 39.661L24.2921 42.8368L24.7734 44.778L37.5817 41.6022L37.1004 39.661ZM37.1004 42.949L24.2921 46.1248L24.7734 48.066L37.5817 44.8902L37.1004 42.949ZM37.1004 46.2369L30.6954 47.8248L31.1767 49.7661L37.5817 48.1781L37.1004 46.2369ZM33.6868 51.2745L33.0238 53.7405L34.9552 54.2598L35.6182 51.7938L33.6868 51.2745ZM33.9895 53.0002H27.9317V55.0002H33.9895V53.0002ZM28.8974 53.7405L28.2343 51.2745L26.3029 51.7938L26.966 54.2598L28.8974 53.7405Z" fill="#565656"/>
</svg>
