<svg width="60" height="60" viewBox="0 0 60 60" fill="none" xmlns="http://www.w3.org/2000/svg">
<path fill-rule="evenodd" clip-rule="evenodd" d="M53.6795 41.7094H7.31896V17.2006C7.31896 14.7666 9.34165 12.7954 11.835 12.7954H49.1635C51.6585 12.7954 53.6795 14.7666 53.6795 17.2006V41.7094ZM2 45.2047H59H2Z" fill="#FEFEFE"/>
<path fill-rule="evenodd" clip-rule="evenodd" d="M11.835 13.6079C9.77101 13.6079 8.13147 15.2345 8.13147 17.2006V40.8969H52.867V17.2006C52.867 15.2343 51.2289 13.6079 49.1635 13.6079H11.835ZM6.50647 17.2006C6.50647 14.2988 8.9123 11.9829 11.835 11.9829H49.1635C52.088 11.9829 54.492 14.299 54.492 17.2006V41.7094V42.5219H53.6795H7.31897H6.50647V41.7094V17.2006ZM2 44.3924H59V46.0174H2V44.3924Z" fill="#4A4A4A"/>
</svg>
